<?xml version="1.0" encoding="UTF-8" standalone="no"?>
<!DOCTYPE svg PUBLIC "-//W3C//DTD SVG 1.1//EN"
"http://www.w3.org/Graphics/SVG/1.1/DTD/svg11.dtd">
<svg viewBox="0 0 909 1286" version="1.1" xmlns="http://www.w3.org/2000/svg" xmlns:xlink="http://www.w3.org/1999/xlink">
<defs>
<clipPath id="c0"><path d="M0,1298.2V0H910.6V1298.2Z"/></clipPath>
<clipPath id="c1"><path d="M0,1287.9V0H910.6V1287.9Z"/></clipPath>
<clipPath id="c2"><path d="M0,1287.9V1.3H411.6V1287.9Z"/></clipPath>
<clipPath id="c3"><path d="M458.2,73.5V20.7H910.6V73.5Z"/></clipPath>
<clipPath id="c4"><path d="M455.1,272.6V219.9H910.4v52.7Z"/></clipPath>
<clipPath id="c5"><path d="M455.1,697.7V645H910.4v52.7Z"/></clipPath>
<clipPath id="c6"><path d="M452.9,938.3V885.6H908.1v52.7Z"/></clipPath>
<clipPath id="c7"><path d="M37.7,1153.8v-31h31v31Z"/></clipPath>
<style type="text/css"><![CDATA[
.g0{
fill: #FFF;
}
.g1{
fill: #545454;
}
.g2{
fill: #231F20;
}
.g3{
fill: #000;
}
.g4{
fill: none;
stroke: #040200;
stroke-width: 0.874;
stroke-miterlimit: 10;
}
.g5{
fill: #0177B5;
}
]]></style>
</defs>
<path clip-path="url(#c0)" d="M0,0H910.6V1298.2H0V0Z" class="g0"/>
<g clip-path="url(#c1)">
<path d="M0,0H910.6V1287.9H0V0Z" class="g0"/>
<path d="M0,0H910.6V1287.9H0V0Z" class="g0"/>
</g>
<image clip-path="url(#c2)" x="-876" y="1" width="1288" height="1289" xlink:href="shade/1.png"/>
<path clip-path="url(#c3)" d="M458.2,20.7H913.5V73.5H458.2V20.7Z" class="g1"/>
<path clip-path="url(#c4)" d="M455.1,219.9H910.4v52.7H455.1V219.9Z" class="g1"/>
<path clip-path="url(#c5)" d="M455.1,645H910.4v52.7H455.1V645Z" class="g1"/>
<path clip-path="url(#c6)" d="M452.9,885.6H908.1v52.7H452.9V885.6Z" class="g1"/>
<path d="M18.7,1038.3h242v1.1H18.7v-1.1Z" class="g0"/>
<path d="M25,238.5H355.3v5.7H25v-5.7Z" class="g0"/>
<path d="M35.9,1085.3H67.8v20.6H35.9v-20.6Z" class="g0"/>
<path d="M67.5,1084H35.7l-1.3,1.4v20.2l1.3,1.3H67.5l1.3,-1.3v-20.2L67.5,1084Zm-15.7,12.3h-.4L37.6,1086.1h28l-13.8,10.2Zm-5.3,-1l-10,7.7v-15.1l10,7.4Zm1.8,1.3l2.5,1.9h1.6l2.5,-1.9l10.8,8.2H37.6l10.7,-8.2Zm8.4,-1.3l10.1,-7.4V1103l-10.1,-7.7Z" class="g2"/>
<path clip-path="url(#c7)" d="M53.2,1122.8c-8.5,0,-15.5,7,-15.5,15.5c0,8.5,7,15.5,15.5,15.5c8.5,0,15.5,-7,15.5,-15.5c0,-8.5,-7,-15.5,-15.5,-15.5Z" class="g3"/>
<path d="M66.9,1138.3c0,7.6,-6.1,13.7,-13.7,13.7c-7.6,0,-13.7,-6.1,-13.7,-13.7c0,-7.6,6.1,-13.7,13.7,-13.7c7.6,0,13.7,6.1,13.7,13.7Z" class="g0"/>
<path d="M57.5,1148c.9,-.3,1.8,-.6,2.1,-.8c.2,-.2,.3,-.2,.2,-.3c-.5,-.5,-4.3,-3.8,-4.3,-3.7c0,0,-.1,.2,-.1,.5c-.1,.5,-.2,.6,-.5,.6c-.3,0,-.5,-.1,-.7,-.5c-.1,-.2,-.3,-.5,-.4,-.6c-.1,-.1,-.3,-.5,-.5,-.8c-.1,-.2,-.4,-.7,-.6,-1c-.4,-.6,-.8,-1.4,-1,-1.7c-.1,-.1,-.3,-.4,-.4,-.6c-.2,-.2,-.4,-.5,-.5,-.7c0,-.2,-.3,-.6,-.5,-.9c-.2,-.3,-.5,-.7,-.6,-.9c-.1,-.2,-.2,-.5,-.4,-.7c-.3,-.4,-.6,-1.1,-.6,-1.3c-.1,-.2,0,-.3,.1,-.4q.2,-.2,.8,0c.3,.1,.4,.1,.5,.1c0,0,-1.5,-5.7,-1.5,-5.7c0,0,-1.7,1.4,-1.7,1.4c0,.1,-.2,.3,-.4,.4c-.1,.2,-.4,.5,-.5,.7c-.2,.4,-.3,.5,-.3,1.1c-.3,1.8,.2,4.5,1.1,6.6c.5,1.2,.8,1.8,1.2,2.3c.1,.2,.3,.5,.4,.7c.6,1.1,2.3,3.1,3.5,4.1c.8,.6,2.6,1.8,3,1.9c1.2,.5,1.5,.5,2.6,.2Zm3,-2.1q.3,-.6,.2,-.8c-.1,0,-3.1,-2.7,-3.5,-3c-.1,-.1,-.2,-.1,-.8,.2c-.6,.3,-.7,.4,-.6,.5c.3,.2,4.4,3.8,4.5,3.8c0,0,.1,-.3,.2,-.7Zm-9.2,-12.1c.3,-.2,.5,-.4,.5,-.4c-.1,-.4,-1.2,-4.8,-1.2,-4.8c-.1,0,-1.5,-.2,-1.6,-.2c0,0,.4,1.5,1.5,5.6c.1,.3,0,.4,.8,-.2Z" class="g3"/>
<path d="M58.9,1207.6c0,1.2,-2.4,2.2,-5.4,2.2c-3,0,-5.4,-1,-5.4,-2.2c0,-1.3,2.4,-2.3,5.4,-2.3c3,0,5.4,1,5.4,2.3Z" class="g0"/>
<path d="M58.9,1207.6c0,1.2,-2.4,2.2,-5.4,2.2c-3,0,-5.4,-1,-5.4,-2.2c0,-1.3,2.4,-2.3,5.4,-2.3c3,0,5.4,1,5.4,2.3Z" class="g4"/>
<path d="M53.7,1169.7c0,0,-.1,0,-.2,0q-.1,0,-.2,0c-6.6,0,-12,5.5,-12,12.3c0,1.1,.5,3.8,1.2,4.9l11,20.7l11.1,-20.7c.6,-1.1,1.1,-3.8,1.1,-4.9c0,-6.8,-5.4,-12.3,-12,-12.3Z" class="g0"/>
<path d="M53.7,1169.7c0,0,-.1,0,-.2,0q-.1,0,-.2,0c-6.6,0,-12,5.5,-12,12.3c0,1.1,.5,3.8,1.2,4.9l11,20.7l11.1,-20.7c.6,-1.1,1.1,-3.8,1.1,-4.9c0,-6.8,-5.4,-12.3,-12,-12.3Z" class="g4"/>
<path d="M60.1,1180.6c0,3.6,-2.9,6.5,-6.6,6.5c-3.6,0,-6.6,-2.9,-6.6,-6.5c0,-3.6,3,-6.5,6.6,-6.5c3.7,0,6.6,2.9,6.6,6.5Z" class="g0"/>
<path d="M60.1,1180.6c0,3.6,-2.9,6.5,-6.6,6.5c-3.6,0,-6.6,-2.9,-6.6,-6.5c0,-3.6,3,-6.5,6.6,-6.5c3.7,0,6.6,2.9,6.6,6.5Z" class="g4"/>
<path d="M67,1225.1H37.7c-1.4,0,-2.6,1.1,-2.6,2.5v29.5c0,1.3,1.2,2.4,2.6,2.4H67c1.4,0,2.5,-1.1,2.5,-2.4v-29.5c0,-1.4,-1.1,-2.5,-2.5,-2.5Z" class="g5"/>
<path d="M40.2,1238h5.1v16.5H40.2V1238Zm2.6,-8.1c1.6,0,2.9,1.3,2.9,2.9c0,1.7,-1.3,3,-2.9,3c-.4,0,-.8,-.1,-1.2,-.2c-.3,-.2,-.6,-.4,-.9,-.7c-.3,-.3,-.5,-.6,-.7,-.9c-.1,-.4,-.2,-.8,-.2,-1.2c0,-.4,.1,-.7,.2,-1.1c.2,-.4,.4,-.7,.7,-1c.3,-.2,.6,-.5,.9,-.6c.4,-.2,.8,-.2,1.2,-.2m5.7,8.1h4.9v2.3h.1c.7,-1.3,2.3,-2.7,4.8,-2.7c5.2,0,6.1,3.4,6.1,7.8v9.1H59.3v-8c0,-1.9,0,-4.4,-2.6,-4.4c-2.7,0,-3.1,2.1,-3.1,4.2v8.2H48.5V1238Z" class="g0"/>
<path d="M45.4,855.4c0,.3,0,.7,-.2,1c-.1,.4,-.3,.7,-.6,1c-.3,.2,-.6,.5,-.9,.6c-.4,.1,-.7,.2,-1.1,.2c-.4,0,-.8,-.1,-1.1,-.2c-.4,-.1,-.7,-.4,-1,-.6c-.2,-.3,-.4,-.6,-.6,-1c-.1,-.3,-.2,-.7,-.2,-1c0,-.4,.1,-.8,.2,-1.1c.2,-.4,.4,-.7,.6,-1c.3,-.2,.6,-.5,1,-.6c.3,-.1,.7,-.2,1.1,-.2c.4,0,.7,.1,1.1,.2c.3,.1,.6,.4,.9,.6c.3,.3,.5,.6,.6,1c.2,.3,.2,.7,.2,1.1Z" class="g0"/>
<path d="M45.4,890.9c0,.4,0,.7,-.2,1.1c-.1,.4,-.3,.7,-.6,.9c-.3,.3,-.6,.5,-.9,.7c-.4,.1,-.7,.2,-1.1,.2c-.4,0,-.8,-.1,-1.1,-.2c-.4,-.2,-.7,-.4,-1,-.7c-.2,-.2,-.4,-.5,-.6,-.9c-.1,-.4,-.2,-.7,-.2,-1.1c0,-.4,.1,-.7,.2,-1.1c.2,-.3,.4,-.7,.6,-.9c.3,-.3,.6,-.5,1,-.6c.3,-.2,.7,-.3,1.1,-.3c.4,0,.7,.1,1.1,.3c.3,.1,.6,.3,.9,.6c.3,.2,.5,.6,.6,.9c.2,.4,.2,.7,.2,1.1Z" class="g0"/>
<path d="M45.4,926.5c0,.3,0,.7,-.2,1.1c-.1,.3,-.3,.6,-.6,.9c-.3,.2,-.6,.5,-.9,.6c-.4,.1,-.7,.2,-1.1,.2c-.4,0,-.8,-.1,-1.1,-.2c-.4,-.1,-.7,-.4,-1,-.6c-.2,-.3,-.4,-.6,-.6,-.9c-.1,-.4,-.2,-.8,-.2,-1.1c0,-.4,.1,-.8,.2,-1.1c.2,-.4,.4,-.7,.6,-1c.3,-.2,.6,-.5,1,-.6c.3,-.1,.7,-.2,1.1,-.2c.4,0,.7,.1,1.1,.2c.3,.1,.6,.4,.9,.6c.3,.3,.5,.6,.6,1c.2,.3,.2,.7,.2,1.1Z" class="g0"/>
<path d="M45.4,962c0,.4,0,.7,-.2,1.1c-.1,.4,-.3,.7,-.6,.9c-.3,.3,-.6,.5,-.9,.7c-.4,.1,-.7,.2,-1.1,.2c-.4,0,-.8,-.1,-1.1,-.2c-.4,-.2,-.7,-.4,-1,-.7c-.2,-.2,-.4,-.5,-.6,-.9c-.1,-.4,-.2,-.7,-.2,-1.1c0,-.4,.1,-.7,.2,-1.1c.2,-.3,.4,-.7,.6,-.9c.3,-.3,.6,-.5,1,-.6c.3,-.2,.7,-.3,1.1,-.3c.4,0,.7,.1,1.1,.3c.3,.1,.6,.3,.9,.6c.3,.2,.5,.6,.6,.9c.2,.4,.2,.7,.2,1.1Z" class="g0"/>
<path d="M45.4,997.6c0,.3,0,.7,-.2,1.1c-.1,.3,-.3,.6,-.6,.9c-.3,.3,-.6,.5,-.9,.6c-.4,.1,-.7,.2,-1.1,.2c-.4,0,-.8,-.1,-1.1,-.2c-.4,-.1,-.7,-.3,-1,-.6c-.2,-.3,-.4,-.6,-.6,-.9c-.1,-.4,-.2,-.8,-.2,-1.1c0,-.4,.1,-.8,.2,-1.1c.2,-.4,.4,-.7,.6,-1c.3,-.2,.6,-.4,1,-.6c.3,-.1,.7,-.2,1.1,-.2c.4,0,.7,.1,1.1,.2c.3,.2,.6,.4,.9,.6c.3,.3,.5,.6,.6,1c.2,.3,.2,.7,.2,1.1Z" class="g0"/>
<path d="M485.6,1103.1c0,.3,0,.6,-.1,.9c-.2,.3,-.3,.5,-.5,.7c-.2,.3,-.5,.4,-.8,.5c-.3,.2,-.5,.2,-.9,.2c-.3,0,-.6,0,-.8,-.2c-.3,-.1,-.6,-.2,-.8,-.5c-.2,-.2,-.4,-.4,-.5,-.7c-.1,-.3,-.1,-.6,-.1,-.9c0,-.3,0,-.6,.1,-.9c.1,-.2,.3,-.5,.5,-.7c.2,-.2,.5,-.4,.8,-.5c.2,-.1,.5,-.2,.8,-.2c.4,0,.6,.1,.9,.2c.3,.1,.6,.3,.8,.5c.2,.2,.3,.5,.5,.7c.1,.3,.1,.6,.1,.9Z" class="g3"/>
<path d="M485.6,1124.9c0,.3,0,.6,-.1,.9c-.2,.3,-.3,.5,-.5,.7c-.2,.2,-.5,.4,-.8,.5c-.3,.1,-.5,.2,-.9,.2c-.3,0,-.6,-.1,-.8,-.2c-.3,-.1,-.6,-.3,-.8,-.5c-.2,-.2,-.4,-.4,-.5,-.7c-.1,-.3,-.1,-.6,-.1,-.9c0,-.3,0,-.6,.1,-.9c.1,-.3,.3,-.5,.5,-.7c.2,-.2,.5,-.4,.8,-.5c.2,-.1,.5,-.2,.8,-.2c.4,0,.6,.1,.9,.2c.3,.1,.6,.3,.8,.5c.2,.2,.3,.4,.5,.7c.1,.3,.1,.6,.1,.9Z" class="g3"/>
<path d="M485.6,1146.7c0,.3,0,.6,-.1,.9c-.2,.3,-.3,.5,-.5,.7c-.2,.2,-.5,.4,-.8,.5c-.3,.1,-.5,.2,-.9,.2c-.3,0,-.6,-.1,-.8,-.2c-.3,-.1,-.6,-.3,-.8,-.5c-.2,-.2,-.4,-.4,-.5,-.7c-.1,-.3,-.1,-.6,-.1,-.9c0,-.3,0,-.6,.1,-.9c.1,-.3,.3,-.5,.5,-.7c.2,-.2,.5,-.4,.8,-.5c.2,-.1,.5,-.2,.8,-.2c.4,0,.6,.1,.9,.2c.3,.1,.6,.3,.8,.5c.2,.2,.3,.4,.5,.7c.1,.3,.1,.6,.1,.9Z" class="g3"/>
<path d="M485.6,1168.5c0,.3,0,.6,-.1,.9c-.2,.2,-.3,.5,-.5,.7c-.2,.2,-.5,.4,-.8,.5c-.3,.1,-.5,.2,-.9,.2c-.3,0,-.6,-.1,-.8,-.2c-.3,-.1,-.6,-.3,-.8,-.5c-.2,-.2,-.4,-.5,-.5,-.7c-.1,-.3,-.1,-.6,-.1,-.9c0,-.3,0,-.6,.1,-.9c.1,-.3,.3,-.5,.5,-.7c.2,-.3,.5,-.4,.8,-.5c.2,-.1,.5,-.2,.8,-.2c.4,0,.6,.1,.9,.2c.3,.1,.6,.2,.8,.5c.2,.2,.3,.4,.5,.7c.1,.3,.1,.6,.1,.9Z" class="g3"/>
<path d="M485.6,1190.3c0,.3,0,.6,-.1,.9c-.2,.2,-.3,.5,-.5,.7c-.2,.2,-.5,.4,-.8,.5c-.3,.1,-.5,.2,-.9,.2c-.3,0,-.6,-.1,-.8,-.2c-.3,-.1,-.6,-.3,-.8,-.5c-.2,-.2,-.4,-.5,-.5,-.7c-.1,-.3,-.1,-.6,-.1,-.9c0,-.3,0,-.6,.1,-.9c.1,-.3,.3,-.5,.5,-.7c.2,-.3,.5,-.4,.8,-.5c.2,-.2,.5,-.2,.8,-.2c.4,0,.6,0,.9,.2c.3,.1,.6,.2,.8,.5c.2,.2,.3,.4,.5,.7c.1,.3,.1,.6,.1,.9Z" class="g3"/>
<path d="M480.3,759c0,.3,0,.6,-.1,.9c-.1,.3,-.3,.5,-.5,.7c-.2,.3,-.5,.4,-.8,.5c-.3,.2,-.5,.2,-.9,.2c-.3,0,-.5,0,-.8,-.2c-.3,-.1,-.6,-.2,-.8,-.5c-.2,-.2,-.4,-.4,-.5,-.7c-.1,-.3,-.1,-.6,-.1,-.9c0,-.3,0,-.6,.1,-.9c.1,-.2,.3,-.5,.5,-.7c.2,-.2,.5,-.4,.8,-.5c.3,-.1,.5,-.2,.8,-.2c.4,0,.6,.1,.9,.2c.3,.1,.6,.3,.8,.5c.2,.2,.4,.5,.5,.7c.1,.3,.1,.6,.1,.9Z" class="g3"/>
<path d="M480.3,846.2c0,.3,0,.6,-.1,.9c-.1,.2,-.3,.5,-.5,.7c-.2,.2,-.5,.4,-.8,.5c-.3,.1,-.5,.2,-.9,.2c-.3,0,-.5,-.1,-.8,-.2c-.3,-.1,-.6,-.3,-.8,-.5c-.2,-.2,-.4,-.5,-.5,-.7c-.1,-.3,-.1,-.6,-.1,-.9c0,-.3,0,-.6,.1,-.9c.1,-.3,.3,-.5,.5,-.7c.2,-.3,.5,-.4,.8,-.5c.3,-.2,.5,-.2,.8,-.2c.4,0,.6,0,.9,.2c.3,.1,.6,.2,.8,.5c.2,.2,.4,.4,.5,.7c.1,.3,.1,.6,.1,.9Z" class="g3"/>
<path d="M486.5,92.7c0,.3,-.1,.6,-.2,.8c-.1,.3,-.3,.6,-.5,.8c-.2,.2,-.5,.4,-.8,.5c-.2,.1,-.5,.2,-.8,.2c-.3,0,-.6,-.1,-.9,-.2c-.3,-.1,-.5,-.3,-.8,-.5c-.2,-.2,-.3,-.5,-.4,-.8c-.2,-.2,-.2,-.5,-.2,-.8c0,-.3,0,-.6,.2,-.9c.1,-.3,.2,-.5,.4,-.8c.3,-.2,.5,-.3,.8,-.5c.3,-.1,.6,-.1,.9,-.1c.3,0,.6,0,.8,.1c.3,.2,.6,.3,.8,.5c.2,.3,.4,.5,.5,.8c.1,.3,.2,.6,.2,.9Z" class="g3"/>
<path d="M486.5,114.5c0,.3,-.1,.6,-.2,.8c-.1,.3,-.3,.6,-.5,.8c-.2,.2,-.5,.4,-.8,.5c-.2,.1,-.5,.1,-.8,.1c-.3,0,-.6,0,-.9,-.1c-.3,-.1,-.5,-.3,-.8,-.5c-.2,-.2,-.3,-.5,-.4,-.8c-.2,-.2,-.2,-.5,-.2,-.8c0,-.3,0,-.6,.2,-.9c.1,-.3,.2,-.6,.4,-.8c.3,-.2,.5,-.3,.8,-.5c.3,-.1,.6,-.1,.9,-.1c.3,0,.6,0,.8,.1c.3,.2,.6,.3,.8,.5c.2,.2,.4,.5,.5,.8c.1,.3,.2,.6,.2,.9Z" class="g3"/>
<path d="M486.5,136.2c0,.3,-.1,.6,-.2,.9c-.1,.3,-.3,.6,-.5,.8c-.2,.2,-.5,.3,-.8,.5c-.2,.1,-.5,.1,-.8,.1c-.3,0,-.6,0,-.9,-.1c-.3,-.2,-.5,-.3,-.8,-.5c-.2,-.2,-.3,-.5,-.4,-.8c-.2,-.3,-.2,-.6,-.2,-.9c0,-.3,0,-.6,.2,-.8c.1,-.3,.2,-.6,.4,-.8c.3,-.2,.5,-.4,.8,-.5c.3,-.1,.6,-.1,.9,-.1c.3,0,.6,0,.8,.1c.3,.1,.6,.3,.8,.5c.2,.2,.4,.5,.5,.8c.1,.2,.2,.5,.2,.8Z" class="g3"/>
<path d="M486.5,158c0,.3,-.1,.6,-.2,.9c-.1,.3,-.3,.5,-.5,.8c-.2,.2,-.5,.3,-.8,.5c-.2,.1,-.5,.1,-.8,.1c-.3,0,-.6,0,-.9,-.1c-.3,-.2,-.5,-.3,-.8,-.5c-.2,-.3,-.3,-.5,-.4,-.8c-.2,-.3,-.2,-.6,-.2,-.9c0,-.3,0,-.6,.2,-.8c.1,-.3,.2,-.6,.4,-.8c.3,-.2,.5,-.4,.8,-.5c.3,-.1,.6,-.2,.9,-.2c.3,0,.6,.1,.8,.2c.3,.1,.6,.3,.8,.5c.2,.2,.4,.5,.5,.8c.1,.2,.2,.5,.2,.8Z" class="g3"/>
<path d="M486.5,179.8c0,.3,-.1,.6,-.2,.9c-.1,.3,-.3,.5,-.5,.7c-.2,.3,-.5,.4,-.8,.5c-.2,.2,-.5,.2,-.8,.2c-.3,0,-.6,0,-.9,-.2c-.3,-.1,-.5,-.2,-.8,-.5c-.2,-.2,-.3,-.4,-.4,-.7c-.2,-.3,-.2,-.6,-.2,-.9c0,-.3,0,-.6,.2,-.9c.1,-.2,.2,-.5,.4,-.7c.3,-.2,.5,-.4,.8,-.5c.3,-.1,.6,-.2,.9,-.2c.3,0,.6,.1,.8,.2c.3,.1,.6,.3,.8,.5c.2,.2,.4,.5,.5,.7c.1,.3,.2,.6,.2,.9Z" class="g3"/>
<path d="M486.5,201.6c0,.3,-.1,.6,-.2,.9c-.1,.3,-.3,.5,-.5,.7c-.2,.2,-.5,.4,-.8,.5c-.2,.1,-.5,.2,-.8,.2c-.3,0,-.6,-.1,-.9,-.2c-.3,-.1,-.5,-.3,-.8,-.5c-.2,-.2,-.3,-.4,-.4,-.7c-.2,-.3,-.2,-.6,-.2,-.9c0,-.3,0,-.6,.2,-.9c.1,-.2,.2,-.5,.4,-.7c.3,-.2,.5,-.4,.8,-.5c.3,-.1,.6,-.2,.9,-.2c.3,0,.6,.1,.8,.2c.3,.1,.6,.3,.8,.5c.2,.2,.4,.5,.5,.7c.1,.3,.2,.6,.2,.9Z" class="g3"/>
</svg>